<svg width="437" height="396" viewBox="0 0 437 396" fill="none" xmlns="http://www.w3.org/2000/svg">
<path opacity="0.0344828" d="M60.1354 221.56C51.1163 211.109 52.7659 195.232 63.7358 186.906L110.761 151.216C114.874 148.094 117.956 143.81 119.61 138.916L138.547 82.8959C143.011 69.6887 157.795 63.1244 170.609 68.6592L224.003 91.7219C228.83 93.8069 234.174 94.3751 239.324 93.3509L296.292 82.0225C309.963 79.3038 323.073 88.8339 324.726 102.692L331.735 161.47C332.348 166.606 334.483 171.444 337.864 175.363L376.525 220.163C385.545 230.615 383.895 246.492 372.925 254.818L325.901 290.508C321.788 293.629 318.705 297.913 317.05 302.808L298.114 358.827C293.65 372.035 278.867 378.599 266.053 373.064L212.659 350.002C207.832 347.917 202.488 347.348 197.338 348.373L140.37 359.701C126.699 362.42 113.588 352.89 111.935 339.032L104.926 280.253C104.313 275.118 102.179 270.279 98.7975 266.361L60.1354 221.56Z" stroke="url(#paint0_linear_8238_5040)" stroke-width="2"/>
<path opacity="0.0689655" d="M62.4735 213.535C54.0059 202.619 56.4756 186.844 67.8635 179.109L115.716 146.607C119.985 143.706 123.286 139.59 125.192 134.788L146.575 80.9196C151.716 67.9664 166.816 62.1928 179.323 68.3971L230.437 93.7532C235.148 96.0897 240.452 96.9397 245.646 96.1899L302.004 88.0537C315.794 86.0631 328.39 96.2739 329.323 110.2L333.204 168.117C333.55 173.28 335.431 178.226 338.606 182.319L374.188 228.19C382.656 239.107 380.186 254.881 368.798 262.616L320.946 295.119C316.676 298.019 313.376 302.135 311.469 306.937L290.087 360.806C284.945 373.759 269.847 379.532 257.34 373.328L206.225 347.972C201.515 345.636 196.21 344.786 191.017 345.536L134.658 353.672C120.868 355.663 108.272 345.452 107.339 331.525L103.458 273.609C103.111 268.446 101.23 263.499 98.0552 259.406L62.4735 213.535Z" stroke="url(#paint1_linear_8238_5040)" stroke-width="2"/>
<path opacity="0.103448" d="M65.2043 205.761C57.3105 194.408 60.5948 178.777 72.3709 171.653L120.849 142.326C125.264 139.655 128.774 135.719 130.927 131.022L154.586 79.4085C160.391 66.7447 175.762 61.7765 187.927 68.632L236.678 96.1054C241.258 98.6868 246.508 99.8156 251.73 99.3421L307.312 94.3028C321.181 93.0455 333.225 103.909 333.437 117.866L334.3 174.753C334.378 179.929 336.001 184.97 338.96 189.226L371.457 235.964C379.35 247.318 376.066 262.948 364.29 270.072L315.811 299.399C311.397 302.07 307.887 306.007 305.734 310.703L282.074 362.316C276.269 374.98 260.899 379.949 248.734 373.093L199.983 345.62C195.403 343.038 190.153 341.91 184.931 342.383L129.349 347.422C115.48 348.68 103.435 337.816 103.223 323.859L102.361 266.972C102.283 261.796 100.659 256.755 97.6998 252.499L65.2043 205.761Z" stroke="url(#paint2_linear_8238_5040)" stroke-width="2"/>
<path opacity="0.137931" d="M68.307 198.257C61.009 186.497 65.1009 171.049 77.2333 164.557L126.141 138.384C130.689 135.951 134.399 132.202 136.793 127.624L162.556 78.3569C169.009 66.017 184.609 61.867 196.397 69.3542L242.711 98.7675C247.148 101.586 252.328 102.99 257.564 102.793L312.209 100.746C326.119 100.225 337.577 111.71 337.067 125.66L335.027 181.358C334.838 186.534 336.198 191.656 338.934 196.065L368.354 243.468C375.652 255.228 371.56 270.676 359.428 277.169L310.52 303.341C305.972 305.775 302.262 309.522 299.868 314.101L274.104 363.368C267.652 375.708 252.052 379.858 240.264 372.371L193.951 342.957C189.514 340.139 184.334 338.735 179.098 338.931L124.452 340.979C110.542 341.5 99.0836 330.015 99.5943 316.065L101.634 260.367C101.823 255.191 100.462 250.069 97.7268 245.661L68.307 198.257Z" stroke="url(#paint3_linear_8238_5040)" stroke-width="2"/>
<path opacity="0.172414" d="M71.763 191.04C65.0806 178.905 69.9701 163.682 82.4273 157.838L131.571 134.784C136.239 132.594 140.14 129.045 142.769 124.597L170.459 77.7549C177.541 65.7727 193.326 62.4509 204.706 70.5479L248.52 101.723C252.801 104.77 257.897 106.445 263.131 106.526L316.691 107.357C330.602 107.573 341.442 119.646 340.21 133.551L335.394 187.912C334.936 193.074 336.031 198.264 338.535 202.812L364.898 250.685C371.581 262.82 366.691 278.043 354.234 283.887L305.091 306.94C300.422 309.131 296.521 312.679 293.891 317.127L266.203 363.97C259.12 375.952 243.335 379.274 231.956 371.177L188.141 340.001C183.86 336.955 178.765 335.28 173.531 335.199L119.97 334.368C106.059 334.152 95.2191 322.078 96.4511 308.173L101.267 253.812C101.724 248.65 100.63 243.46 98.1259 238.912L71.763 191.04Z" stroke="url(#paint4_linear_8238_5040)" stroke-width="2"/>
<path opacity="0.206897" d="M75.5496 184.133C69.501 171.655 75.1774 156.696 87.9261 151.516L137.116 131.534C141.893 129.593 145.975 126.255 148.832 121.949L178.269 77.5971C185.962 66.0055 201.889 63.5204 212.827 72.2038L254.093 104.961C258.207 108.227 263.202 110.166 268.419 110.524L320.753 114.114C334.626 115.066 344.817 127.693 342.867 141.515L335.407 194.4C334.683 199.535 335.507 204.778 337.774 209.454L361.111 257.601C367.16 270.079 361.483 285.038 348.735 290.217L299.546 310.199C294.768 312.14 290.687 315.479 287.83 319.785L258.392 364.136C250.699 375.727 234.773 378.214 223.834 369.53L182.568 336.773C178.454 333.507 173.459 331.567 168.242 331.21L115.908 327.62C102.036 326.669 91.8442 314.04 93.794 300.218L101.255 247.333C101.979 242.199 101.155 236.955 98.8881 232.279L75.5496 184.133Z" stroke="url(#paint5_linear_8238_5040)" stroke-width="2"/>
<path opacity="0.241379" d="M79.6439 177.539C74.2461 164.75 80.6958 150.095 93.7023 145.596L142.755 128.627C147.628 126.941 151.879 123.821 154.959 119.669L185.962 77.8637C194.246 66.6943 210.268 65.0494 220.736 74.2938L259.414 108.453C263.349 111.928 268.231 114.127 273.417 114.76L324.391 120.98C337.971 122.638 347.402 135.402 345.154 148.87L345.038 149.512L335.072 200.792C334.082 205.885 334.635 211.169 336.657 215.961L357.014 264.192C362.412 276.981 355.962 291.635 342.955 296.135L293.903 313.104C289.03 314.79 284.778 317.91 281.699 322.062L250.696 363.868C242.413 375.037 226.389 376.682 215.922 367.437L177.243 333.279C173.309 329.804 168.426 327.605 163.241 326.972L112.267 320.751C98.4715 319.067 88.9587 305.921 91.6211 292.22L101.586 240.939C102.576 235.846 102.023 230.562 100.001 225.77L79.6439 177.539Z" stroke="url(#paint6_linear_8238_5040)" stroke-width="2"/>
<path opacity="0.275862" d="M84.0265 171.28C79.2949 158.215 86.5031 143.904 99.7326 140.097L148.474 126.071C153.429 124.645 157.839 121.751 161.131 117.765L193.52 78.5476C202.371 67.8309 218.447 67.0304 228.415 76.8097L264.479 112.19C268.223 115.863 272.978 118.314 278.117 119.22L327.609 127.939C341.289 130.349 350.097 143.976 346.729 157.519L334.404 207.077C333.151 212.116 333.429 217.426 335.202 222.32L352.635 270.454C357.366 283.519 350.158 297.831 336.929 301.637L288.188 315.662C283.232 317.088 278.822 319.982 275.529 323.969L243.14 363.185C234.29 373.902 218.214 374.703 208.246 364.924L172.183 329.544C168.438 325.87 163.683 323.419 158.544 322.514L109.052 313.795C95.3727 311.385 86.5635 297.757 89.9315 284.214L102.256 234.656C103.509 229.618 103.232 224.308 101.46 219.414L84.0265 171.28Z" stroke="url(#paint7_linear_8238_5040)" stroke-width="2"/>
<path opacity="0.310345" d="M88.6705 165.364C84.6819 152.266 92.3226 138.564 105.36 135.179L105.985 135.025L154.245 123.863C159.27 122.701 163.826 120.043 167.324 116.232L200.917 79.6338C210.312 69.3993 226.395 69.4428 235.837 79.7284L269.269 116.151C272.814 120.013 277.428 122.708 282.506 123.882L330.402 134.96C343.928 138.089 352.008 152.158 347.944 165.506L333.41 213.236C331.896 218.205 331.898 223.526 333.415 228.51L333.416 228.51L347.989 276.37C352.041 289.677 344.092 303.605 330.675 306.709L282.417 317.871L282.416 317.87C277.391 319.032 272.835 321.691 269.337 325.502L235.743 362.101C226.349 372.335 210.264 372.292 200.823 362.006L167.392 325.583C163.847 321.722 159.233 319.027 154.155 317.852L106.258 306.774C92.7318 303.645 84.6527 289.576 88.7171 276.229L103.252 228.498C104.765 223.528 104.763 218.207 103.245 213.224L88.6705 165.364Z" stroke="url(#paint8_linear_8238_5040)" stroke-width="2"/>
<path opacity="0.344828" d="M93.5537 159.801C90.1936 146.29 98.8649 132.782 112.433 130.391L160.05 122.002C165.131 121.107 169.822 118.692 173.516 115.068L208.133 81.1054C218.045 71.3811 234.095 72.2676 242.984 83.0304L273.779 120.317C277.114 124.355 281.576 127.286 286.578 128.726L332.776 142.02C346.111 145.857 353.438 160.328 348.689 173.444L332.099 219.25C330.329 224.137 330.056 229.455 331.314 234.514L343.106 281.932C346.466 295.444 337.795 308.952 324.226 311.342L276.609 319.73C271.529 320.626 266.837 323.042 263.144 326.665L228.526 360.628C218.614 370.352 202.565 369.466 193.676 358.704L162.881 321.417C159.546 317.379 155.084 314.448 150.082 313.008L103.884 299.714C90.5492 295.877 83.2207 281.405 87.9707 268.29L104.56 222.484C106.331 217.596 106.604 212.278 105.346 207.218L93.5537 159.801Z" stroke="url(#paint9_linear_8238_5040)" stroke-width="2"/>
<path opacity="0.37931" d="M98.6534 154.603C95.9948 140.922 105.368 127.871 119.051 126.201L165.872 120.488C170.995 119.863 175.808 117.696 179.688 114.269L215.152 82.9489C225.555 73.7619 241.524 75.4868 249.837 86.6956L278.001 124.672C281.117 128.875 285.414 132.033 290.328 133.733L334.733 149.093C347.84 153.627 354.397 168.459 348.974 181.306L330.488 225.105C328.466 229.897 327.916 235.198 328.911 240.319L338.008 287.131C340.667 300.812 331.294 313.863 317.61 315.533L270.79 321.246C265.667 321.871 260.854 324.038 256.973 327.465L221.51 358.785C211.107 367.973 195.137 366.247 186.824 355.038L158.661 317.062C155.545 312.86 151.248 309.702 146.334 308.002L101.928 292.641C88.8212 288.107 82.2648 273.275 87.6873 260.428L106.173 216.629C108.196 211.837 108.746 206.537 107.75 201.415L98.6534 154.603Z" stroke="url(#paint10_linear_8238_5040)" stroke-width="2"/>
<path opacity="0.413793" d="M103.944 149.773C101.995 135.96 112.045 123.405 125.807 122.461L171.687 119.313C176.838 118.96 181.761 117.05 185.817 113.83L221.95 85.1465C232.815 76.5214 248.663 79.0789 256.378 90.7024L281.925 129.195C284.816 133.549 288.936 136.925 293.747 138.879L336.278 156.156C349.12 161.373 354.888 176.522 348.808 189.066L328.585 230.784C326.315 235.468 325.492 240.737 326.221 245.907L332.717 291.961C334.666 305.774 324.615 318.329 310.854 319.273L264.974 322.42C259.823 322.773 254.899 324.684 250.843 327.904L214.71 356.587C203.845 365.212 187.997 362.655 180.283 351.032L154.735 312.54C151.845 308.185 147.725 304.81 142.913 302.855L100.383 285.579C87.5403 280.362 81.7723 265.211 87.853 252.667L108.075 210.949C110.345 206.266 111.169 200.997 110.44 195.827L103.944 149.773Z" stroke="url(#paint11_linear_8238_5040)" stroke-width="2"/>
<path opacity="0.448276" d="M109.4 145.319C108.167 131.41 118.871 119.385 132.673 119.17L177.479 118.475C182.643 118.395 187.663 116.746 191.885 113.742L228.514 87.6779C239.812 79.6391 255.494 83.0211 262.591 95.026L285.549 133.864C288.205 138.359 292.138 141.941 296.835 144.144L337.416 163.182C349.96 169.067 354.924 184.491 348.202 196.698L326.408 236.274C323.896 240.836 322.799 246.058 323.26 251.262L327.26 296.413C328.492 310.322 317.789 322.347 303.986 322.561L259.181 323.256C254.017 323.336 248.997 324.986 244.775 327.99L208.146 354.053C196.848 362.092 181.165 358.711 174.069 346.706L151.111 307.867C148.454 303.373 144.521 299.791 139.825 297.587L99.2436 278.55C86.6997 272.665 81.7361 257.24 88.4583 245.033L110.252 205.458C112.764 200.896 113.862 195.673 113.401 190.469L109.4 145.319Z" stroke="url(#paint12_linear_8238_5040)" stroke-width="2"/>
<path opacity="0.482759" d="M115 141.245C114.489 127.28 125.818 115.82 139.622 116.337L183.228 117.971C188.392 118.165 193.495 116.782 197.872 114.002L234.827 90.5308C246.527 83.1001 262.003 87.2946 268.463 99.6477L288.866 138.667C291.283 143.288 295.019 147.067 299.587 149.511L338.158 170.152C350.369 176.687 354.515 192.343 347.17 204.179L323.968 241.563C321.22 245.991 319.853 251.154 320.045 256.378L321.659 300.489C322.171 314.455 310.842 325.915 297.037 325.398L253.432 323.764C248.268 323.571 243.165 324.954 238.788 327.734L201.833 351.205C190.133 358.635 174.657 354.441 168.197 342.088L147.793 303.069C145.377 298.447 141.641 294.668 137.073 292.224L98.5024 271.583C86.2912 265.048 82.1448 249.393 89.4903 237.557L112.692 200.172C115.44 195.744 116.807 190.582 116.615 185.357L115 141.245Z" stroke="url(#paint13_linear_8238_5040)" stroke-width="2"/>
<path opacity="0.517241" d="M120.719 137.552C120.931 123.568 132.857 112.705 146.627 113.953L188.916 117.787C194.066 118.254 199.239 117.142 203.758 114.595L240.875 93.6771C252.945 86.8749 268.173 91.8714 273.98 104.538L291.875 143.576C294.045 148.311 297.574 152.275 302.002 154.954L338.509 177.038C350.355 184.204 353.675 200.047 345.726 211.479L321.283 246.636C318.306 250.916 316.671 256.003 316.592 261.233L315.941 304.181C315.729 318.165 303.803 329.028 290.033 327.78L247.743 323.945C242.593 323.479 237.422 324.592 232.902 327.139L195.785 348.056C183.715 354.857 168.487 349.862 162.681 337.195L144.786 298.157C142.616 293.422 139.087 289.457 134.659 286.779L98.1509 264.695C86.3052 257.529 82.9852 241.686 90.9338 230.253L115.378 195.098C118.354 190.817 119.988 185.73 120.068 180.499L120.719 137.552Z" stroke="url(#paint14_linear_8238_5040)" stroke-width="2"/>
<path opacity="0.551724" d="M126.533 134.242C127.469 120.278 139.96 110.044 153.657 112.022L194.527 117.922C199.649 118.661 204.876 117.823 209.526 115.516L246.644 97.1034C259.051 90.9488 273.991 96.7314 279.129 109.676L294.572 148.577C296.491 153.412 299.804 157.551 304.08 160.456L338.483 183.824C349.931 191.6 352.416 207.586 343.886 218.583L318.365 251.483C315.168 255.605 313.27 260.603 312.92 265.825L310.128 307.492C309.193 321.457 296.701 331.69 283.004 329.713L242.133 323.813C237.012 323.074 231.785 323.911 227.135 326.218L190.017 344.631C177.61 350.786 162.67 345.004 157.531 332.059L142.089 293.158C140.17 288.322 136.857 284.184 132.581 281.279L98.1772 257.911C86.7291 250.135 84.2447 234.149 92.7751 223.152L118.296 190.252C121.493 186.13 123.39 181.132 123.74 175.911L126.533 134.242Z" stroke="url(#paint15_linear_8238_5040)" stroke-width="2"/>
<path opacity="0.586207" d="M132.418 131.312C134.076 117.406 147.101 107.833 160.687 110.535L200.044 118.362C205.122 119.372 210.389 118.811 215.158 116.751L252.122 100.785C264.832 95.2946 279.445 101.847 283.903 115.035L296.955 153.648C298.62 158.57 301.708 162.871 305.822 165.993L338.089 190.482C349.11 198.846 350.754 214.93 341.665 225.462L315.232 256.092C311.822 260.043 309.667 264.938 309.047 270.136L304.244 310.42C302.585 324.326 289.561 333.899 275.975 331.197L236.618 323.371C231.539 322.361 226.271 322.922 221.503 324.981L184.539 340.948C171.829 346.438 157.215 339.886 152.758 326.698L139.706 288.086C138.042 283.163 134.953 278.863 130.839 275.741L98.5713 251.251C87.5506 242.886 85.9065 226.802 94.9954 216.27L121.429 185.641C124.839 181.689 126.994 176.795 127.614 171.597L132.418 131.312Z" stroke="url(#paint16_linear_8238_5040)" stroke-width="2"/>
<path opacity="0.62069" d="M138.35 128.764C140.728 114.955 154.249 106.072 167.687 109.491L205.447 119.102C210.469 120.38 215.763 120.097 220.637 118.291L257.299 104.702C270.277 99.8921 284.524 107.196 288.29 120.59L299.026 158.77C300.431 163.766 303.288 168.217 307.228 171.547L337.34 196.998C347.904 205.927 348.705 222.064 339.083 232.101L311.9 260.457C308.286 264.226 305.877 269.003 304.989 274.164L298.309 312.97C295.932 326.779 282.41 335.662 268.973 332.242L231.213 322.632C226.191 321.354 220.897 321.637 216.023 323.444L179.36 337.032C166.382 341.841 152.135 334.538 148.369 321.144L137.633 282.964C136.228 277.967 133.371 273.517 129.431 270.186L99.3189 244.736C88.7554 235.807 87.9543 219.67 97.5766 209.632L124.76 181.278C128.373 177.508 130.782 172.73 131.67 167.569L138.35 128.764Z" stroke="url(#paint17_linear_8238_5040)" stroke-width="2"/>
<path opacity="0.655172" d="M144.308 126.591C147.398 112.917 161.382 104.749 174.633 108.879L210.724 120.126C215.675 121.669 220.981 121.666 225.946 120.119L262.166 108.832C275.377 104.715 289.221 112.75 292.286 126.315L300.786 163.923C301.929 168.979 304.548 173.568 308.305 177.097L336.251 203.348C346.33 212.816 346.287 228.962 336.157 238.478L308.385 264.566C304.577 268.142 301.923 272.789 300.768 277.898L292.351 315.14C289.26 328.815 275.277 336.982 262.025 332.852L225.934 321.605C220.983 320.062 215.678 320.065 210.712 321.612L174.493 332.899C161.282 337.016 147.439 328.98 144.373 315.416L135.873 277.808C134.73 272.751 132.111 268.163 128.354 264.633L100.409 238.383C90.3293 228.915 90.3717 212.769 100.501 203.253L128.274 177.166C132.081 173.589 134.736 168.942 135.891 163.833L144.308 126.591Z" stroke="url(#paint18_linear_8238_5040)" stroke-width="2"/>
<path opacity="0.689655" d="M150.27 124.785C154.066 111.285 168.472 103.859 181.5 108.688L215.86 121.423C220.727 123.227 226.03 123.505 231.074 122.222L266.715 113.15C280.123 109.738 293.526 118.483 295.884 132.181L302.238 169.087C303.116 174.189 305.49 178.903 309.055 182.621L334.835 209.513C344.403 219.495 343.518 235.605 332.909 244.572L304.705 268.409C300.714 271.782 297.819 276.286 296.401 281.33L286.389 316.936C282.593 330.437 268.187 337.862 255.159 333.034L220.798 320.299C215.931 318.495 210.629 318.216 205.585 319.5L169.943 328.572C156.536 331.984 143.132 323.239 140.774 309.541L134.421 272.635C133.542 267.533 131.168 262.819 127.604 259.101L101.824 232.209C92.2556 222.227 93.1404 206.117 103.75 197.15L131.955 173.312C135.946 169.939 138.839 165.436 140.257 160.392L150.27 124.785Z" stroke="url(#paint19_linear_8238_5040)" stroke-width="2"/>
<path opacity="0.724138" d="M156.214 123.352C160.706 110.062 175.495 103.401 188.263 108.916L220.844 122.99C225.613 125.049 230.897 125.608 236.004 124.593L270.943 117.645C284.509 114.947 297.438 124.378 299.083 138.172L303.386 174.251C303.999 179.387 306.122 184.212 309.485 188.109L333.11 215.486C342.142 225.952 340.419 241.982 329.359 250.376L300.877 271.993C296.714 275.153 293.589 279.499 291.911 284.463L280.448 318.373C275.956 331.663 261.167 338.324 248.399 332.809L215.818 318.735C211.049 316.675 205.764 316.117 200.657 317.133L165.718 324.08C152.152 326.778 139.223 317.348 137.578 303.554L133.276 267.474C132.663 262.338 130.539 257.513 127.177 253.616L103.551 226.24C94.5185 215.773 96.2417 199.743 107.301 191.349L135.784 169.732C139.947 166.572 143.073 162.226 144.751 157.262L156.214 123.352Z" stroke="url(#paint20_linear_8238_5040)" stroke-width="2"/>
<path opacity="0.758621" d="M162.116 122.275C167.292 109.235 182.423 103.36 194.895 109.546L225.658 124.806C230.316 127.116 235.567 127.954 240.724 127.21L274.839 122.285C288.528 120.309 300.949 130.4 301.878 144.254L304.232 179.391C304.578 184.546 306.447 189.471 309.6 193.536L331.091 221.241C339.564 232.165 337.009 248.072 325.529 255.87L296.918 275.303C292.594 278.24 289.246 282.418 287.313 287.288L274.545 319.451C269.368 332.491 254.237 338.367 241.765 332.18L211.004 316.92C206.346 314.61 201.095 313.772 195.938 314.516L161.822 319.441C148.133 321.417 135.712 311.325 134.784 297.472L132.43 262.336C132.084 257.181 130.215 252.255 127.062 248.19L105.571 220.485C97.0976 209.561 99.6528 193.654 111.133 185.856L139.743 166.423C144.068 163.485 147.416 159.308 149.349 154.439L162.116 122.275Z" stroke="url(#paint21_linear_8238_5040)" stroke-width="2"/>
<path opacity="0.793103" d="M167.959 121.549C173.806 108.795 189.236 103.723 201.377 110.565L230.291 126.859C234.825 129.414 240.029 130.529 245.221 130.058L278.404 127.05C292.177 125.801 304.056 136.527 304.267 150.403L304.784 184.489C304.862 189.65 306.472 194.662 309.407 198.884L328.794 226.768C336.686 238.118 333.308 253.859 321.439 261.039L292.846 278.336C288.372 281.043 284.81 285.039 282.626 289.802L268.702 320.178C262.855 332.932 247.425 338.004 235.284 331.162L206.37 314.867C201.837 312.312 196.632 311.197 191.44 311.668L158.257 314.676C144.483 315.925 132.604 305.199 132.393 291.324L131.877 257.237C131.799 252.076 130.189 247.064 127.254 242.842L107.866 214.959C99.9745 203.608 103.353 187.867 115.221 180.687L143.815 163.39C148.289 160.684 151.852 156.687 154.035 151.925L167.959 121.549Z" stroke="url(#paint22_linear_8238_5040)" stroke-width="2"/>
<path opacity="0.827586" d="M173.723 121.162C180.225 108.729 195.909 104.478 207.684 111.956L234.734 129.135C239.13 131.927 244.272 133.317 249.485 133.122L281.635 131.917C295.455 131.399 306.762 142.731 306.255 156.591L305.048 189.529C304.86 194.683 306.207 199.768 308.917 204.135L326.241 232.049C333.532 243.796 329.341 259.33 317.116 265.872L288.677 281.09C284.066 283.557 280.3 287.362 277.873 292.003L262.938 320.563C256.437 332.996 240.753 337.247 228.977 329.769L201.927 312.589C197.531 309.797 192.389 308.407 187.177 308.603L155.027 309.808C141.207 310.326 129.9 298.993 130.408 285.132L131.614 252.195C131.803 247.042 130.456 241.957 127.745 237.59L110.421 209.675C103.131 197.928 107.322 182.395 119.547 175.853L147.984 160.635C152.595 158.168 156.361 154.363 158.788 149.721L173.723 121.162Z" stroke="url(#paint23_linear_8238_5040)" stroke-width="2"/>
<path opacity="0.862069" d="M179.387 121.104C186.525 109.028 202.42 105.61 213.796 113.705L238.974 131.621C243.221 134.643 248.286 136.303 253.504 136.384L284.529 136.864C298.359 137.079 309.062 148.987 307.839 162.796L305.031 194.495C304.576 199.627 305.657 204.772 308.136 209.274L323.446 237.077C330.116 249.189 325.126 264.471 312.578 270.358L284.429 283.563C279.694 285.784 275.735 289.385 273.07 293.893L257.272 320.619C250.134 332.695 234.239 336.112 222.862 328.018L197.685 310.103C193.438 307.081 188.373 305.42 183.155 305.339L152.13 304.858C138.301 304.644 127.597 292.736 128.821 278.926L131.629 247.228C132.084 242.095 131.003 236.95 128.524 232.449L113.213 204.646C106.543 192.534 111.534 177.251 124.081 171.365L152.23 158.16C156.965 155.939 160.924 152.338 163.589 147.831L179.387 121.104Z" stroke="url(#paint24_linear_8238_5040)" stroke-width="2"/>
<path opacity="0.896552" d="M184.936 121.367C192.692 109.682 208.751 107.109 219.696 115.797L243.006 134.3C247.091 137.543 252.065 139.47 257.274 139.828L287.091 141.872C300.891 142.819 310.963 155.272 309.028 168.993L304.742 199.372C304.023 204.47 304.836 209.663 307.078 214.287L320.433 241.84C326.465 254.285 320.69 269.276 307.854 274.49L280.121 285.756C275.276 287.724 271.134 291.112 268.24 295.473L251.723 320.358C243.968 332.042 227.908 334.616 216.964 325.927L193.654 307.423C189.569 304.18 184.595 302.253 179.386 301.896L149.57 299.851C135.77 298.905 125.697 286.453 127.632 272.732L131.917 242.352C132.636 237.253 131.823 232.061 129.582 227.437L116.227 199.885C110.195 187.44 115.971 172.448 128.806 167.233L156.539 155.968C161.384 154 165.525 150.612 168.42 146.251L184.936 121.367Z" stroke="url(#paint25_linear_8238_5040)" stroke-width="2"/>
<path opacity="0.931035" d="M190.354 121.934C198.705 110.674 214.882 108.954 225.364 118.212L246.818 137.16C250.731 140.615 255.6 142.803 260.785 143.435L289.321 146.918C303.053 148.594 312.468 161.559 309.826 175.155L304.192 204.145C303.211 209.196 303.753 214.422 305.752 219.156L317.22 246.327C322.599 259.071 316.055 273.732 302.967 278.26L275.77 287.669C270.828 289.378 266.515 292.542 263.399 296.744L246.308 319.791C237.957 331.051 221.78 332.771 211.297 323.513L189.842 304.565C185.93 301.11 181.062 298.923 175.877 298.29L147.341 294.807C133.608 293.131 124.193 280.166 126.836 266.57L132.469 237.58C133.45 232.529 132.907 227.304 130.909 222.569L119.441 195.398C114.062 182.654 120.607 167.993 133.695 163.465L160.892 154.056C165.833 152.347 170.145 149.183 173.262 144.981L190.354 121.934Z" stroke="url(#paint26_linear_8238_5040)" stroke-width="2"/>
<path opacity="0.965517" d="M195.62 122.794C204.543 111.99 220.791 111.128 230.781 120.929L250.403 140.179C254.132 143.837 258.881 146.28 264.027 147.187L291.22 151.977C304.847 154.378 313.578 167.821 310.236 181.258L303.387 208.796C302.146 213.787 302.418 219.034 304.168 223.866L313.825 250.53C318.537 263.539 311.243 277.832 297.938 281.661L271.389 289.3C266.365 290.745 261.894 293.678 258.564 297.71L241.039 318.929C232.116 329.733 215.868 330.595 205.877 320.794L186.255 301.544C182.526 297.886 177.776 295.442 172.631 294.536L145.438 289.746C131.811 287.345 123.08 273.902 126.421 260.465L133.27 232.927C134.512 227.936 134.24 222.689 132.49 217.857L122.833 191.193C118.121 178.184 125.415 163.891 138.72 160.062L165.268 152.422C170.292 150.977 174.763 148.045 178.094 144.013L195.62 122.794Z" stroke="url(#paint27_linear_8238_5040)" stroke-width="2"/>
<path d="M200.723 123.931C210.193 113.614 226.464 113.614 235.935 123.931L253.757 143.348C257.291 147.199 261.908 149.889 267 151.067L292.796 157.034C306.28 160.153 314.304 174.038 310.272 187.279L302.344 213.318C300.846 218.236 300.846 223.488 302.344 228.406L310.272 254.445C314.304 267.685 306.281 281.571 292.796 284.69L267 290.657C261.908 291.835 257.291 294.525 253.757 298.375L235.935 317.792C226.464 328.109 210.193 328.11 200.723 317.792L182.901 298.375C179.367 294.525 174.749 291.835 169.657 290.657L143.862 284.69C130.378 281.571 122.354 267.685 126.386 254.445L134.314 228.406C135.812 223.488 135.812 218.236 134.314 213.318L126.386 187.279C122.354 174.038 130.378 160.153 143.862 157.034L169.657 151.067C174.749 149.889 179.367 147.199 182.901 143.348L200.723 123.931Z" stroke="url(#paint28_linear_8238_5040)" stroke-width="2"/>
<defs>
<linearGradient id="paint0_linear_8238_5040" x1="42.037" y1="202.117" x2="394.712" y2="238.759" gradientUnits="userSpaceOnUse">
<stop stop-color="#194AFA" stop-opacity="0.05"/>
<stop offset="1" stop-color="#194BFB" stop-opacity="0.24"/>
</linearGradient>
<linearGradient id="paint1_linear_8238_5040" x1="45.4011" y1="193.155" x2="391.454" y2="247.335" gradientUnits="userSpaceOnUse">
<stop stop-color="#194AFA" stop-opacity="0.05"/>
<stop offset="1" stop-color="#194BFB" stop-opacity="0.24"/>
</linearGradient>
<linearGradient id="paint2_linear_8238_5040" x1="49.203" y1="184.496" x2="387.792" y2="255.638" gradientUnits="userSpaceOnUse">
<stop stop-color="#194AFA" stop-opacity="0.05"/>
<stop offset="1" stop-color="#194BFB" stop-opacity="0.24"/>
</linearGradient>
<linearGradient id="paint3_linear_8238_5040" x1="53.4216" y1="176.162" x2="383.745" y2="263.655" gradientUnits="userSpaceOnUse">
<stop stop-color="#194AFA" stop-opacity="0.05"/>
<stop offset="1" stop-color="#194BFB" stop-opacity="0.24"/>
</linearGradient>
<linearGradient id="paint4_linear_8238_5040" x1="58.033" y1="168.173" x2="379.329" y2="271.369" gradientUnits="userSpaceOnUse">
<stop stop-color="#194AFA" stop-opacity="0.05"/>
<stop offset="1" stop-color="#194BFB" stop-opacity="0.24"/>
</linearGradient>
<linearGradient id="paint5_linear_8238_5040" x1="63.0133" y1="160.553" x2="374.562" y2="278.772" gradientUnits="userSpaceOnUse">
<stop stop-color="#194AFA" stop-opacity="0.05"/>
<stop offset="1" stop-color="#194BFB" stop-opacity="0.24"/>
</linearGradient>
<linearGradient id="paint6_linear_8238_5040" x1="68.3359" y1="153.308" x2="369.46" y2="285.837" gradientUnits="userSpaceOnUse">
<stop stop-color="#194AFA" stop-opacity="0.05"/>
<stop offset="1" stop-color="#194BFB" stop-opacity="0.24"/>
</linearGradient>
<linearGradient id="paint7_linear_8238_5040" x1="73.9799" y1="146.462" x2="364.047" y2="292.56" gradientUnits="userSpaceOnUse">
<stop stop-color="#194AFA" stop-opacity="0.05"/>
<stop offset="1" stop-color="#194BFB" stop-opacity="0.24"/>
</linearGradient>
<linearGradient id="paint8_linear_8238_5040" x1="79.9144" y1="140.024" x2="358.336" y2="298.924" gradientUnits="userSpaceOnUse">
<stop stop-color="#194AFA" stop-opacity="0.05"/>
<stop offset="1" stop-color="#194BFB" stop-opacity="0.24"/>
</linearGradient>
<linearGradient id="paint9_linear_8238_5040" x1="86.114" y1="134.007" x2="352.35" y2="304.916" gradientUnits="userSpaceOnUse">
<stop stop-color="#194AFA" stop-opacity="0.05"/>
<stop offset="1" stop-color="#194BFB" stop-opacity="0.24"/>
</linearGradient>
<linearGradient id="paint10_linear_8238_5040" x1="92.5528" y1="128.422" x2="346.109" y2="310.526" gradientUnits="userSpaceOnUse">
<stop stop-color="#194AFA" stop-opacity="0.05"/>
<stop offset="1" stop-color="#194BFB" stop-opacity="0.24"/>
</linearGradient>
<linearGradient id="paint11_linear_8238_5040" x1="99.2012" y1="123.277" x2="339.634" y2="315.74" gradientUnits="userSpaceOnUse">
<stop stop-color="#194AFA" stop-opacity="0.05"/>
<stop offset="1" stop-color="#194BFB" stop-opacity="0.24"/>
</linearGradient>
<linearGradient id="paint12_linear_8238_5040" x1="106.033" y1="118.578" x2="332.948" y2="320.546" gradientUnits="userSpaceOnUse">
<stop stop-color="#194AFA" stop-opacity="0.05"/>
<stop offset="1" stop-color="#194BFB" stop-opacity="0.24"/>
</linearGradient>
<linearGradient id="paint13_linear_8238_5040" x1="113.019" y1="114.333" x2="326.074" y2="324.94" gradientUnits="userSpaceOnUse">
<stop stop-color="#194AFA" stop-opacity="0.05"/>
<stop offset="1" stop-color="#194BFB" stop-opacity="0.24"/>
</linearGradient>
<linearGradient id="paint14_linear_8238_5040" x1="120.134" y1="110.541" x2="319.036" y2="328.906" gradientUnits="userSpaceOnUse">
<stop stop-color="#194AFA" stop-opacity="0.05"/>
<stop offset="1" stop-color="#194BFB" stop-opacity="0.24"/>
</linearGradient>
<linearGradient id="paint15_linear_8238_5040" x1="127.348" y1="107.208" x2="311.858" y2="332.442" gradientUnits="userSpaceOnUse">
<stop stop-color="#194AFA" stop-opacity="0.05"/>
<stop offset="1" stop-color="#194BFB" stop-opacity="0.24"/>
</linearGradient>
<linearGradient id="paint16_linear_8238_5040" x1="134.634" y1="104.329" x2="304.567" y2="335.536" gradientUnits="userSpaceOnUse">
<stop stop-color="#194AFA" stop-opacity="0.05"/>
<stop offset="1" stop-color="#194BFB" stop-opacity="0.24"/>
</linearGradient>
<linearGradient id="paint17_linear_8238_5040" x1="141.964" y1="101.908" x2="297.189" y2="338.188" gradientUnits="userSpaceOnUse">
<stop stop-color="#194AFA" stop-opacity="0.05"/>
<stop offset="1" stop-color="#194BFB" stop-opacity="0.24"/>
</linearGradient>
<linearGradient id="paint18_linear_8238_5040" x1="149.312" y1="99.9354" x2="289.752" y2="340.39" gradientUnits="userSpaceOnUse">
<stop stop-color="#194AFA" stop-opacity="0.05"/>
<stop offset="1" stop-color="#194BFB" stop-opacity="0.24"/>
</linearGradient>
<linearGradient id="paint19_linear_8238_5040" x1="156.653" y1="98.4069" x2="282.284" y2="342.14" gradientUnits="userSpaceOnUse">
<stop stop-color="#194AFA" stop-opacity="0.05"/>
<stop offset="1" stop-color="#194BFB" stop-opacity="0.24"/>
</linearGradient>
<linearGradient id="paint20_linear_8238_5040" x1="163.96" y1="97.3253" x2="274.814" y2="343.448" gradientUnits="userSpaceOnUse">
<stop stop-color="#194AFA" stop-opacity="0.05"/>
<stop offset="1" stop-color="#194BFB" stop-opacity="0.24"/>
</linearGradient>
<linearGradient id="paint21_linear_8238_5040" x1="171.207" y1="96.6748" x2="267.369" y2="344.308" gradientUnits="userSpaceOnUse">
<stop stop-color="#194AFA" stop-opacity="0.05"/>
<stop offset="1" stop-color="#194BFB" stop-opacity="0.24"/>
</linearGradient>
<linearGradient id="paint22_linear_8238_5040" x1="178.37" y1="96.4473" x2="259.978" y2="344.725" gradientUnits="userSpaceOnUse">
<stop stop-color="#194AFA" stop-opacity="0.05"/>
<stop offset="1" stop-color="#194BFB" stop-opacity="0.24"/>
</linearGradient>
<linearGradient id="paint23_linear_8238_5040" x1="185.426" y1="96.6307" x2="252.669" y2="344.705" gradientUnits="userSpaceOnUse">
<stop stop-color="#194AFA" stop-opacity="0.05"/>
<stop offset="1" stop-color="#194BFB" stop-opacity="0.24"/>
</linearGradient>
<linearGradient id="paint24_linear_8238_5040" x1="192.35" y1="97.2146" x2="245.471" y2="344.259" gradientUnits="userSpaceOnUse">
<stop stop-color="#194AFA" stop-opacity="0.05"/>
<stop offset="1" stop-color="#194BFB" stop-opacity="0.24"/>
</linearGradient>
<linearGradient id="paint25_linear_8238_5040" x1="199.123" y1="98.1869" x2="238.412" y2="343.397" gradientUnits="userSpaceOnUse">
<stop stop-color="#194AFA" stop-opacity="0.05"/>
<stop offset="1" stop-color="#194BFB" stop-opacity="0.24"/>
</linearGradient>
<linearGradient id="paint26_linear_8238_5040" x1="205.725" y1="99.5313" x2="231.519" y2="342.132" gradientUnits="userSpaceOnUse">
<stop stop-color="#194AFA" stop-opacity="0.05"/>
<stop offset="1" stop-color="#194BFB" stop-opacity="0.24"/>
</linearGradient>
<linearGradient id="paint27_linear_8238_5040" x1="212.131" y1="101.231" x2="224.815" y2="340.477" gradientUnits="userSpaceOnUse">
<stop stop-color="#194AFA" stop-opacity="0.05"/>
<stop offset="1" stop-color="#194BFB" stop-opacity="0.24"/>
</linearGradient>
<linearGradient id="paint28_linear_8238_5040" x1="218.329" y1="103.272" x2="218.329" y2="338.452" gradientUnits="userSpaceOnUse">
<stop stop-color="#194AFA" stop-opacity="0.05"/>
<stop offset="1" stop-color="#194BFB" stop-opacity="0.24"/>
</linearGradient>
</defs>
</svg>
